<svg width="222" height="62" viewBox="0 0 222 62" fill="none" xmlns="http://www.w3.org/2000/svg">
<g clip-path="url(#clip0_4211_19839)">
<path d="M0.617531 38.9549C0.328952 35.3409 0.0685268 32.1204 0.0685268 31.1136C0.0685268 31.1136 0.0456517 30.6493 0.0245361 30.1299C0.585858 28.6907 1.97772 27.6733 3.60714 27.6733C4.5327 27.6733 5.38084 28.0012 6.04422 28.5489C6.47709 28.907 6.83078 29.3554 7.07537 29.8676C7.3182 30.3763 7.45545 30.9453 7.45545 31.5479V36.5143C7.45545 36.9379 7.38858 37.3456 7.26365 37.7284C7.0912 38.2584 6.8079 38.7351 6.4419 39.1375C5.73805 39.9085 4.72978 40.3906 3.60714 40.3906C2.40003 40.3906 1.32314 39.8305 0.617531 38.9549Z" fill="#4572FA"/>
<path d="M63.2886 23.2917C63.2182 23.2739 63.1478 23.2597 63.0792 23.2438C62.9402 23.2137 62.8029 23.1871 62.6657 23.1623C62.597 23.1499 62.5302 23.1392 62.4633 23.1286C62.3964 23.118 62.3296 23.1073 62.2627 23.0985C62.1536 23.0825 62.0445 23.0683 61.9389 23.0559C61.8932 23.0506 61.8474 23.0453 61.8017 23.04C61.7612 23.0364 61.7225 23.0311 61.6838 23.0276C61.6204 23.0222 61.5606 23.0169 61.499 23.0098C61.2861 22.9921 61.082 22.9797 60.892 22.9726C60.8374 22.9708 60.7846 22.9691 60.7318 22.9673C60.5312 22.962 60.3447 22.962 60.1793 22.9638C60.1406 22.9638 60.1036 22.9638 60.0667 22.9655C60.0297 22.9655 59.9946 22.9673 59.9611 22.9691C59.8749 22.9726 59.7957 22.9744 59.7253 22.9779C59.6972 22.9779 59.669 22.9815 59.6444 22.9815C59.5934 22.985 59.5458 22.9886 59.5036 22.9903C59.4825 22.9903 59.4631 22.9939 59.4455 22.9939C59.3998 22.9974 59.3646 23.001 59.3364 23.0027C59.3259 23.0027 59.3153 23.0045 59.3083 23.0063C59.3013 23.0063 59.2942 23.0063 59.2889 23.0081C59.2819 23.0081 59.2784 23.0081 59.2784 23.0081C35.0518 24.4012 18.6996 30.8795 18.6996 30.8795C16.6549 31.787 16.1182 33.9671 16.1182 33.9671C15.6396 35.1776 15.7944 38.4265 15.7944 38.4265C15.3616 41.0108 15.7434 42.9888 15.7434 42.9888C15.7944 51.5266 21.0434 53.5862 21.0434 53.5862C25.6783 55.4668 29.8011 56.8422 33.4541 57.8259C34.6014 58.1343 35.7011 58.4037 36.7569 58.6395C36.8924 58.6696 37.0261 58.6979 37.1599 58.7281C37.1933 58.7352 37.2267 58.7423 37.2602 58.7493C37.4009 58.7795 37.5417 58.8096 37.6807 58.838C37.9482 58.8929 38.2121 58.9461 38.4743 58.9993C38.6397 59.0312 38.8033 59.0631 38.9652 59.0932C39.194 59.1357 39.421 59.1765 39.6462 59.2173C39.7395 59.2332 39.8327 59.2492 39.926 59.2651C40.1635 59.3059 40.3976 59.3449 40.6281 59.3803C40.7055 59.3927 40.7812 59.4051 40.8586 59.4176C41.0891 59.453 41.3161 59.4867 41.5396 59.5186C42.437 59.6462 43.2957 59.7455 44.1139 59.8199C44.2512 59.8323 44.3849 59.8429 44.5204 59.8553C44.721 59.8713 44.9216 59.8873 45.1169 59.8997C45.3122 59.9138 45.5075 59.9245 45.6976 59.9369C45.8243 59.944 45.951 59.9511 46.0776 59.9564C55.5849 60.3977 58.9792 57.28 58.9792 57.28C58.9792 57.28 58.9792 57.2818 58.9792 57.2835C59.398 59.219 58.3176 59.5806 58.3176 59.5806C57.3252 59.9954 56.2958 60.3499 55.2383 60.6512C53.7232 61.0819 52.1466 61.4009 50.5242 61.6189C50.1653 61.6686 49.8045 61.7111 49.4421 61.7501C49.0796 61.7891 48.7153 61.8228 48.3493 61.8511C47.1264 61.9486 45.8841 61.9947 44.6277 61.9947C43.4892 61.9947 42.3402 61.9557 41.1841 61.883C40.9272 61.8671 40.6703 61.8493 40.4134 61.8298C39.1271 61.7324 37.832 61.5941 36.5387 61.4186C36.28 61.3832 36.0214 61.3477 35.7627 61.3087C31.3672 60.6636 26.991 59.6054 22.9051 58.3293C22.664 58.2548 22.4247 58.1786 22.1872 58.1024C21.5907 57.911 21.0029 57.716 20.4205 57.5157C17.8303 56.6277 15.2683 55.7238 13.0512 54.7365C8.77529 52.8347 5.93701 51.2732 3.73219 49.6496C2.9298 49.0576 2.17492 48.4444 1.56785 47.4093C0.739065 45.2806 0.936143 42.925 0.846402 41.7782C0.797132 41.1384 0.746103 40.495 0.695074 39.8587C1.62944 41.133 3.02482 42.0441 4.63312 42.3401L5.52701 42.4393H5.53053L9.63399 42.8913L10.5244 42.9888C12.782 42.9888 14.612 41.1455 14.612 38.8714L14.5961 38.5187V38.5081L14.1897 29.061C14.1897 26.7869 12.3597 24.9436 10.102 24.9436L9.59175 24.9755H9.58824L6.12353 25.1953H6.12001L4.63136 25.2892C2.55676 25.672 0.837604 27.074 0.00354004 28.9617C0.0686463 12.9583 12.9755 0 28.8861 0C32.3086 0 35.592 0.599085 38.6379 1.69977C39.6761 2.03654 40.7125 2.3733 41.749 2.71184C51.7947 5.68776 59.8239 13.405 63.2886 23.2934V23.2917Z" fill="url(#paint0_linear_4211_19839)"/>
<path d="M64.566 39.0876C64.566 46.1508 61.6697 52.5316 57.0084 57.0921C56.7585 57.3384 56.5016 57.5777 56.2412 57.8117C56.3609 57.6362 56.4805 57.4607 56.5984 57.2835C60.0754 52.0211 62.1008 45.7006 62.1008 38.905C62.1008 34.7026 61.3265 30.6827 59.9118 26.9818C60.2479 26.8968 60.7177 27.0669 60.7177 27.0669C62.1272 27.7759 63.6528 32.3789 63.7232 32.5934C63.7249 32.5987 63.7249 32.6005 63.7249 32.6005C64.2722 34.6689 64.5643 36.8437 64.5643 39.0858L64.566 39.0876Z" fill="url(#paint1_linear_4211_19839)"/>
<path d="M95.1483 21.1982C100.981 21.496 109.18 21.9036 109.164 27.1837C109.164 33.2012 102.319 34.6262 94.9776 34.6262C87.6506 34.6102 81.5693 33.7169 80.7915 27.1837H89.331C90.2636 28.8126 92.4262 29.2362 94.9776 29.2362C97.5291 29.2362 100.624 28.8126 100.624 27.1837C100.624 26.2585 98.0887 26.1185 94.807 25.9607C88.9738 25.663 80.7757 25.2553 80.7915 19.9911C80.7915 13.9737 87.6365 12.5327 94.9776 12.5327C102.305 12.5806 108.386 13.4101 109.164 19.9911H100.624C99.6917 18.3304 97.5291 17.9387 94.9776 17.9387C92.4262 17.9387 89.331 18.3144 89.331 19.9911C89.331 20.9164 91.8666 21.0404 95.1483 21.1982Z" fill="#F8F5FF"/>
<path d="M131.485 13.0805C135.794 13.0327 139.449 16.6839 139.387 21.0406C139.449 25.3813 135.794 29.0626 131.485 29.0006H119.491V34.1407H111.34V13.0823H131.485V13.0805ZM129.447 22.8272C129.929 22.8272 130.35 22.6553 130.691 22.3096C131.048 21.9498 131.221 21.5262 131.221 21.0406C131.221 20.5549 131.05 20.1154 130.691 19.7715C130.35 19.4117 129.929 19.238 129.447 19.238H119.491V22.8254H129.447V22.8272Z" fill="#F8F5FF"/>
<path d="M147.024 13.0806H156.714L167.93 34.1389H158.752L157.103 30.5356H146.635L144.986 34.1389H135.808L147.024 13.0806ZM149 25.3955H154.74L151.877 19.176L149 25.3955Z" fill="#F8F5FF"/>
<path d="M195.106 25.3813C194.592 32.4941 188.402 34.6264 180.872 34.6264C173.033 34.6104 166.561 32.324 166.593 24.348V22.8131C166.561 14.853 173.033 12.5666 180.872 12.5347C188.402 12.5506 194.592 14.6811 195.106 21.7797H186.753C185.991 19.7113 183.673 19.2256 180.872 19.2256C177.543 19.2735 174.712 19.8673 174.759 23.3306V23.8482C174.712 27.2796 177.543 27.9071 180.872 27.9531C183.672 27.9531 186.005 27.4515 186.753 25.3831H195.106V25.3813Z" fill="#F8F5FF"/>
<path d="M197.532 13.0804H222.002V18.4704H205.685V21.1645H222.002V26.0369H205.685V28.731H222.002V34.137H197.532V13.0786V13.0804Z" fill="#F8F5FF"/>
<path d="M82.9137 42.9961C83.7495 41.7359 84.8933 40.7469 86.3414 40.0308C87.7896 39.3148 89.3997 38.9585 91.1734 38.9585C93.2972 38.9585 95.1642 39.4902 96.7743 40.5519C98.3843 41.6136 99.5492 43.1237 100.265 45.0787L97.3954 45.1213C97.0998 44.3272 96.6001 43.6484 95.898 43.0812C95.1941 42.514 94.4181 42.0869 93.5665 41.7962C92.7148 41.5055 91.9247 41.3602 91.1927 41.3602C90.0965 41.3602 89.0231 41.5906 87.9761 42.0514C86.9274 42.5122 86.0704 43.1875 85.4018 44.0809C84.7331 44.9742 84.4006 46.0288 84.4006 47.2464C84.4006 48.4641 84.7103 49.5559 85.3296 50.4333C85.949 51.3124 86.7743 51.9771 87.809 52.4308C88.8419 52.8846 89.9715 53.1114 91.1945 53.1114C91.9124 53.1114 92.6638 52.9732 93.4521 52.6967C94.2404 52.4202 94.9777 52.0054 95.6675 51.4542C96.3555 50.9012 96.9045 50.2295 97.3127 49.4354H100.286C99.4982 51.4188 98.3139 52.9271 96.732 53.9622C95.1501 54.9973 93.2972 55.5131 91.1734 55.5131C89.4155 55.5131 87.809 55.1515 86.352 54.4301C84.895 53.7088 83.7495 52.7162 82.9137 51.4542C82.0761 50.194 81.6591 48.7902 81.6591 47.2464C81.6591 45.7026 82.0779 44.2581 82.9137 42.9961Z" fill="url(#paint2_linear_4211_19839)"/>
<path d="M104.717 55.0879H102.08V39.3628H104.717V55.0879Z" fill="url(#paint3_linear_4211_19839)"/>
<path d="M117.872 43.8258C118.976 44.3646 119.841 45.1108 120.468 46.068C121.094 47.0251 121.407 48.0974 121.407 49.2867C121.407 50.476 121.094 51.5288 120.468 52.4842C119.841 53.4395 118.977 54.1875 117.872 54.7263C116.767 55.2652 115.527 55.5346 114.149 55.5346C112.771 55.5346 111.585 55.2616 110.426 54.7157C109.266 54.1698 108.34 53.42 107.651 52.4629C106.961 51.5058 106.618 50.4477 106.618 49.2867C106.618 48.1258 106.963 47.0446 107.651 46.0892C108.34 45.1321 109.261 44.3824 110.415 43.8364C111.568 43.2905 112.813 43.0176 114.149 43.0176C115.484 43.0176 116.769 43.287 117.872 43.8258ZM117.439 52.571C118.326 51.8692 118.768 50.7756 118.768 49.2885C118.768 47.8014 118.324 46.7025 117.439 45.9953C116.553 45.2863 115.463 44.9336 114.17 44.9336C113.354 44.9336 112.574 45.0825 111.828 45.3802C111.082 45.678 110.475 46.153 110.003 46.8035C109.532 47.4558 109.296 48.2835 109.296 49.2902C109.296 50.297 109.532 51.1212 110.003 51.7663C110.475 52.4115 111.078 52.8812 111.817 53.179C112.556 53.4768 113.339 53.6256 114.17 53.6256C115.463 53.6256 116.554 53.2747 117.439 52.5746V52.571Z" fill="url(#paint4_linear_4211_19839)"/>
<path d="M133.135 43.5063H135.773V55.0875H133.135V53.4941C131.981 54.811 130.251 55.4703 127.946 55.4703C126.399 55.4703 125.185 54.9244 124.307 53.8344C123.427 52.7443 122.989 50.8957 122.989 48.2884V43.5063H125.627V48.2246C125.627 49.6833 125.866 50.9063 126.345 51.89C126.823 52.8755 127.814 53.3664 129.32 53.3664C130.827 53.3664 131.891 52.8666 132.389 51.8687C132.889 50.8708 133.139 49.6053 133.139 48.0757V43.5063H133.135Z" fill="url(#paint5_linear_4211_19839)"/>
<path d="M148.514 39.4051H151.152V55.0238H148.958L148.683 53.6857C147.488 54.7473 145.574 55.2791 142.945 55.2791C141.861 55.2791 140.895 55.0061 140.043 54.4602C139.192 53.9143 138.532 53.1681 138.06 52.2181C137.589 51.2698 137.353 50.2064 137.353 49.0312V48.9674C137.367 47.9465 137.596 46.9841 138.039 46.0766C138.483 45.1708 139.125 44.4406 139.97 43.8876C140.814 43.3346 141.805 43.0581 142.945 43.0581C145.379 43.0581 147.235 43.6678 148.514 44.8855V39.4033V39.4051ZM146.552 52.8242C147.172 52.4201 147.652 51.8973 147.997 51.2521C148.342 50.6069 148.514 49.9316 148.514 49.2226C148.514 48.4445 148.345 47.7285 148.008 47.0762C147.67 46.424 147.188 45.9046 146.563 45.5147C145.936 45.1248 145.224 44.9298 144.421 44.9298C143.506 44.9298 142.727 45.1425 142.079 45.5679C141.432 45.9933 140.946 46.5214 140.624 47.1507C140.3 47.7816 140.131 48.402 140.117 49.01C140.131 49.7189 140.3 50.4084 140.624 51.0819C140.948 51.7555 141.43 52.3138 142.069 52.7604C142.709 53.2071 143.492 53.4304 144.421 53.4304C145.224 53.4304 145.933 53.2284 146.552 52.8242Z" fill="url(#paint6_linear_4211_19839)"/>
</g>
<defs>
<linearGradient id="paint0_linear_4211_19839" x1="2.07821e-05" y1="31" x2="63.2886" y2="31" gradientUnits="userSpaceOnUse">
<stop stop-color="#4572FA"/>
<stop offset="1" stop-color="#A482FA"/>
</linearGradient>
<linearGradient id="paint1_linear_4211_19839" x1="56.2413" y1="42.3858" x2="64.566" y2="42.3858" gradientUnits="userSpaceOnUse">
<stop stop-color="#4572FA"/>
<stop offset="1" stop-color="#A482FA"/>
</linearGradient>
<linearGradient id="paint2_linear_4211_19839" x1="81.6593" y1="47.2363" x2="100.286" y2="47.2363" gradientUnits="userSpaceOnUse">
<stop stop-color="#4572FA"/>
<stop offset="1" stop-color="#A482FA"/>
</linearGradient>
<linearGradient id="paint3_linear_4211_19839" x1="102.08" y1="47.2258" x2="104.717" y2="47.2258" gradientUnits="userSpaceOnUse">
<stop stop-color="#4572FA"/>
<stop offset="1" stop-color="#A482FA"/>
</linearGradient>
<linearGradient id="paint4_linear_4211_19839" x1="106.618" y1="49.2764" x2="121.407" y2="49.2764" gradientUnits="userSpaceOnUse">
<stop stop-color="#4572FA"/>
<stop offset="1" stop-color="#A482FA"/>
</linearGradient>
<linearGradient id="paint5_linear_4211_19839" x1="122.989" y1="49.4887" x2="135.773" y2="49.4887" gradientUnits="userSpaceOnUse">
<stop stop-color="#4572FA"/>
<stop offset="1" stop-color="#A482FA"/>
</linearGradient>
<linearGradient id="paint6_linear_4211_19839" x1="137.353" y1="47.3417" x2="151.152" y2="47.3417" gradientUnits="userSpaceOnUse">
<stop stop-color="#4572FA"/>
<stop offset="1" stop-color="#A482FA"/>
</linearGradient>
<clipPath id="clip0_4211_19839">
<rect width="222" height="62" fill="white"/>
</clipPath>
</defs>
</svg>
